<svg width="35" height="35" viewBox="0 0 35 35" fill="none" xmlns="http://www.w3.org/2000/svg">
<path fill-rule="evenodd" clip-rule="evenodd" d="M5.83334 14.5833H5.83042L5.83334 29.1667H8.75001V14.5833H5.83334ZM8.75001 32.0833H5.83334C4.2248 32.0833 2.91667 30.7752 2.91667 29.1667V14.5833C2.91667 12.9748 4.2248 11.6667 5.83334 11.6667H8.75001C10.3585 11.6667 11.6667 12.9748 11.6667 14.5833V29.1667C11.6667 30.7752 10.3585 32.0833 8.75001 32.0833ZM22.6113 17.0514C22.8344 17.0514 23.0605 17.0704 23.2836 17.1054C25.2524 17.4277 26.7355 19.2447 26.7355 21.3345V29.1672H29.1665V21.2018C29.1665 17.5531 26.2236 14.5839 22.604 14.5839C18.9859 14.5839 16.0415 17.5531 16.0415 21.2018V29.1672H18.4726V21.2018C18.4726 19.9783 19.0049 18.8233 19.9353 18.0329C20.6878 17.3941 21.6342 17.0514 22.6113 17.0514ZM29.1665 32.0839H26.7355C25.1284 32.0839 23.8188 30.7743 23.8188 29.1672V21.3345C23.8188 20.6681 23.3769 20.076 22.8155 19.9856C22.3255 19.901 21.9842 20.1197 21.8253 20.2539C21.5482 20.4902 21.3892 20.8358 21.3892 21.2018V29.1672C21.3892 30.7743 20.0811 32.0839 18.4726 32.0839H16.0415C14.4344 32.0839 13.1249 30.7743 13.1249 29.1672V21.2018C13.1249 15.9431 17.3774 11.6672 22.604 11.6672C27.8307 11.6672 32.0832 15.9431 32.0832 21.2018V29.1672C32.0832 30.7743 30.7751 32.0839 29.1665 32.0839ZM7.29167 4.37499C6.48667 4.37499 5.83334 5.02833 5.83334 5.83333C5.83334 6.63833 6.48667 7.29166 7.29167 7.29166C8.09667 7.29166 8.75001 6.63833 8.75001 5.83333C8.75001 5.02833 8.09667 4.37499 7.29167 4.37499ZM7.29167 10.2083C4.87959 10.2083 2.91667 8.24541 2.91667 5.83333C2.91667 3.42124 4.87959 1.45833 7.29167 1.45833C9.70376 1.45833 11.6667 3.42124 11.6667 5.83333C11.6667 8.24541 9.70376 10.2083 7.29167 10.2083Z" fill="#231F20"/>
<mask id="mask0_91_271" style="mask-type:luminance" maskUnits="userSpaceOnUse" x="2" y="1" width="31" height="32">
<path fill-rule="evenodd" clip-rule="evenodd" d="M5.83334 14.5833H5.83042L5.83334 29.1667H8.75001V14.5833H5.83334ZM8.75001 32.0833H5.83334C4.2248 32.0833 2.91667 30.7752 2.91667 29.1667V14.5833C2.91667 12.9748 4.2248 11.6667 5.83334 11.6667H8.75001C10.3585 11.6667 11.6667 12.9748 11.6667 14.5833V29.1667C11.6667 30.7752 10.3585 32.0833 8.75001 32.0833ZM22.6113 17.0514C22.8344 17.0514 23.0605 17.0704 23.2836 17.1054C25.2524 17.4277 26.7355 19.2447 26.7355 21.3345V29.1672H29.1665V21.2018C29.1665 17.5531 26.2236 14.5839 22.604 14.5839C18.9859 14.5839 16.0415 17.5531 16.0415 21.2018V29.1672H18.4726V21.2018C18.4726 19.9783 19.0049 18.8233 19.9353 18.0329C20.6878 17.3941 21.6342 17.0514 22.6113 17.0514ZM29.1665 32.0839H26.7355C25.1284 32.0839 23.8188 30.7743 23.8188 29.1672V21.3345C23.8188 20.6681 23.3769 20.076 22.8155 19.9856C22.3255 19.901 21.9842 20.1197 21.8253 20.2539C21.5482 20.4902 21.3892 20.8358 21.3892 21.2018V29.1672C21.3892 30.7743 20.0811 32.0839 18.4726 32.0839H16.0415C14.4344 32.0839 13.1249 30.7743 13.1249 29.1672V21.2018C13.1249 15.9431 17.3774 11.6672 22.604 11.6672C27.8307 11.6672 32.0832 15.9431 32.0832 21.2018V29.1672C32.0832 30.7743 30.7751 32.0839 29.1665 32.0839ZM7.29167 4.37499C6.48667 4.37499 5.83334 5.02833 5.83334 5.83333C5.83334 6.63833 6.48667 7.29166 7.29167 7.29166C8.09667 7.29166 8.75001 6.63833 8.75001 5.83333C8.75001 5.02833 8.09667 4.37499 7.29167 4.37499ZM7.29167 10.2083C4.87959 10.2083 2.91667 8.24541 2.91667 5.83333C2.91667 3.42124 4.87959 1.45833 7.29167 1.45833C9.70376 1.45833 11.6667 3.42124 11.6667 5.83333C11.6667 8.24541 9.70376 10.2083 7.29167 10.2083Z" fill="white"/>
</mask>
<g mask="url(#mask0_91_271)">
<rect y="-2.8" width="35" height="35" fill="#3D5C36"/>
</g>
</svg>
