<svg width="35" height="35" viewBox="0 0 35 35" fill="none" xmlns="http://www.w3.org/2000/svg">
<path d="M26.25 11.814H20.4167V10.5379H26.25V11.814ZM27.475 20.7463C26.3521 24.0392 18.7994 25.0717 18.7994 18.4712C18.7994 11.7877 26.8319 12.0881 27.6267 17.1996C27.6923 17.6298 27.7171 18.2102 27.7069 19.021H21.2756C21.124 21.5221 23.8423 21.8385 24.7815 20.7477L27.475 20.7463ZM21.334 17.344H25.1606C24.9929 14.8837 21.719 14.7044 21.334 17.344ZM12.791 23.2881H7.29167V10.5569H13.2067C17.8646 10.6254 17.9535 15.1885 15.521 16.431C18.4654 17.5029 18.5631 23.2881 12.791 23.2881ZM10.026 15.801H12.8917C15.0267 15.801 15.365 13.09 12.6263 13.09H10.026V15.801ZM12.7298 17.9215H10.026V20.7608H12.686C15.2848 20.7594 15.1258 17.9215 12.7298 17.9215ZM17.5 2.91667C25.5413 2.91667 32.0833 9.45875 32.0833 17.5C32.0833 25.5413 25.5413 32.0833 17.5 32.0833C9.45875 32.0833 2.91667 25.5413 2.91667 17.5C2.91667 9.45875 9.45875 2.91667 17.5 2.91667ZM17.5 0C7.83562 0 0 7.83562 0 17.5C0 27.1644 7.83562 35 17.5 35C27.1644 35 35 27.1644 35 17.5C35 7.83562 27.1644 0 17.5 0Z" fill="#3D5C36"/>
</svg>
